PathFileType	4	(X/Y/Z)	C:/Users/beibeiliu/ov580/test_trc/User2\sequence.28_training_dense_right.trc
DataRate	CameraRate	NumFrames	NumMarkers	Units	OrigDataRate	OrigDataStartFrame	OrigNumFrames
120	120	20	19	mm	120	1	85
Frame#	Time	ThumbCMC			ThumbMCP			ThumbIP			ThumbTip			IndexMCP			IndexPIP			IndexTip			MiddleMCP			MiddlePIP			MiddleTip			RingMCP			RingPIP			RingTip			PinkyMCP			PinkyPIP			PinkyTip			BackHand1			BackHand2			BackHand3	
		X0	Y0	Z0	X1	Y1	Z1	X2	Y2	Z2	X3	Y3	Z3	X4	Y4	Z4	X5	Y5	Z5	X6	Y6	Z6	X7	Y7	Z7	X8	Y8	Z8	X9	Y9	Z9	X10	Y10	Z10	X11	Y11	Z11	X12	Y12	Z12	X13	Y13	Z13	X14	Y14	Z14	X15	Y15	Z15	X16	Y16	Z16	X17	Y17	Z17	X18	Y18	Z18	
0	0	86.1932	66.8609	-20.546	49.8096	79.8844	-37.3935	20.406	80.2532	-58.8347	0.295448	82.1621	-70.1359	76.027	51.844	-100.41	48.5995	56.8834	-115.824	28.4242	62.355	-127.6	67.7947	29.996	-104.27	42.9605	39.9481	-121.712	15.1397	42.9013	-137.623	58.4639	13.2914	-98.2927	35.5606	19.3731	-114.961	10.7896	25.9491	-129.944	52.313	-0.20642	-81.8785	30.8042	5.49242	-98.1035	13.6632	10.2267	-112.138	96.6989	3.17318	-47.4398	110.817	2.63385	-14.7464	115.613	35.9023	-33.6446	
1	0.00833333	102.572	65.1843	-32.8472	73.6897	82.4805	-43.1152	43.7244	92.596	-66.0207	25.5216	104.78	-74.1078	81.5927	45.3438	-104.1	58.6515	57.8095	-121.437	33.7971	65.6297	-131.714	69.1382	29.6711	-104.923	42.4971	44.9192	-125.166	17.8181	53.9323	-139.742	52.3228	18.6062	-97.9947	30.3878	23.4593	-108.834	10.96	40.3636	-127.282	44.139	8.51136	-76.3346	23.7794	19.4299	-93.3296	10.6493	31.2496	-109.473	89.4154	-0.823678	-46.5987	105.046	-3.02518	-15.4316	120.066	23.5715	-42.1786	
2	0.0166667	117.352	60.9408	-34.3318	88.0127	81.456	-51.4232	62.7567	98.3587	-72.672	45.9001	108.924	-83.0175	84.6591	38.7311	-106.858	68.6981	53.6794	-123.503	44.9823	65.4391	-134.363	65.7965	28.8753	-108.726	46.4486	45.3225	-126.737	22.3144	59.1992	-142.568	48.518	19.4639	-94.4738	33.1073	32.3099	-108.366	14.2576	48.0422	-125.994	40.9384	15.3585	-75.4748	24.0612	28.4689	-88.7929	13.8769	38.8364	-105.761	83.1294	-2.36209	-45.3305	97.7038	-7.433	-15.7138	119.408	12.7434	-41.9593	
3	0.025	124.201	56.0225	-41.0667	101.274	80.8023	-56.6743	74.3163	94.7752	-81.2167	59.3343	109.45	-92.6782	92.8123	32.0494	-109.354	73.0536	49.2673	-129.77	52.2226	61.209	-140.409	67.4128	21.6132	-107.472	48.6238	40.0731	-129.285	29.3911	54.6461	-145.176	52.2243	18.4753	-98.0019	34.6418	31.9444	-114.09	21.7388	48.3523	-131.451	43.8383	16.2474	-75.0157	30.13	29.4437	-90.0956	16.6275	41.0042	-112.425	85.8725	-3.35078	-45.635	98.0667	-5.04587	-12.0665	122.016	9.78094	-46.3679	
4	0.0333333	127.588	52.2621	-45.3292	104.106	74.7295	-62.1039	79.5652	88.351	-87.2182	62.3081	100.023	-101.111	94.0064	24.7889	-113.147	80.9999	38.4107	-132.042	58.6891	51.4272	-144.578	78.0743	13.9703	-108.957	56.209	31.5762	-134.002	39.3882	43.7012	-151.693	59.4862	10.2437	-96.0453	42.1652	24.4128	-119.625	26.9137	37.6766	-139.119	46.9129	9.69053	-74.7242	33.1549	23.126	-98.8731	21.8976	33.4325	-117.895	88.7055	-6.06059	-42.4262	98.0903	-9.60656	-11.1084	121.634	4.15768	-40.7166	
5	0.0416667	123.622	48.6958	-48.6413	98.7584	66.3092	-66.269	75.9339	77.3086	-88.8905	58.3952	86.0764	-105.184	99.0191	18.1483	-115.71	77.4826	27.5279	-134.104	61.6107	41.2637	-154.316	79.2892	2.95246	-111.008	58.9357	15.0395	-135.147	42.5815	27.9525	-155.711	62.5433	-0.5426	-102.797	44.4102	6.5298	-120.793	32.9041	20.6488	-141.807	48.1038	-2.19771	-81.5757	38.6585	8.01387	-100.72	23.2729	15.1006	-124.894	87.1465	-14.0335	-45.3753	101.323	-12.0261	-16.2097	122.606	0.66288	-45.8631	
6	0.05	116.336	44.1509	-50.1187	92.0269	62.045	-71.5634	66.0022	68.2132	-98.417	48.7424	75.4254	-111.187	96.7286	10.2726	-118.301	78.4285	19.8325	-140.312	55.137	25.1026	-153.719	82.2242	-5.25052	-116.387	60.5682	4.00527	-139.288	39.2783	13.1697	-160.345	61.5238	-15.333	-104.783	44.6662	-8.79169	-123.909	29.8766	1.18362	-144.576	53.356	-15.4535	-82.6435	35.009	-8.8348	-105.522	23.0124	-2.24708	-128.743	94.6192	-20.2574	-46.9441	106.043	-15.483	-17.7133	124.794	-0.233754	-48.7862	
7	0.0583333	111.548	44.4099	-49.0523	82.7467	54.8586	-73.6642	57.0564	56.8733	-99.1779	38.5843	60.7936	-115.455	97.5635	6.65656	-122.243	73.3473	11.5699	-141.255	52.6195	15.7994	-158.811	81.9087	-12.0213	-119.37	60.66	-4.79165	-142.843	35.1967	-0.289006	-164.905	64.565	-24.4112	-107.829	46.6556	-20.7282	-127.56	34.4149	-11.0895	-148.604	57.9873	-27.4274	-84.75	42.5242	-21.7082	-106.291	27.3146	-19.653	-129.656	99.1319	-26.5739	-54.0635	109.848	-19.6935	-18.3493	128.399	1.0837	-49.0064	
8	0.0666667	103.913	42.355	-52.2925	75.2371	52.7655	-73.6714	51.1867	48.7983	-97.7803	31.681	50.3446	-114.115	98.8226	9.98312	-123.515	79.0383	12.5115	-143.258	58.8718	11.7676	-157.167	90.6706	-11.3265	-121.925	66.1471	-6.82684	-147.525	48.3251	-4.66536	-165.142	80.0278	-25.0597	-110.859	60.959	-23.2112	-131.132	41.5379	-18.8322	-155.517	68.3094	-33.99	-92.3246	52.4784	-27.5087	-114.326	37.383	-28.8723	-132.168	106.988	-28.4947	-55.4332	114.251	-21.4996	-23.7193	128.589	5.4917	-48.6225	
9	0.075	96.3838	49.3122	-49.3565	65.0643	49.5885	-75.6075	43.9618	42.3494	-101.582	26.2543	37.9741	-120.17	102.614	18.1012	-126.048	85.4868	21.6655	-144.532	62.654	15.4014	-164.193	100.274	0.355281	-130.288	76.9637	-1.76533	-153.416	60.1452	-2.52654	-173.216	93.1585	-20.6032	-118.334	75.71	-19.7762	-139.26	57.7414	-17.853	-162.676	83.23	-35.1725	-101.909	68.0516	-30.2143	-123.011	57.5778	-28.2017	-144.23	117.589	-15.7287	-60.0239	121.468	-15.6864	-30.1402	130.843	14.3514	-49.5759	
10	0.0833333	84.2822	43.1003	-52.53	54.3614	40.5605	-81.381	35.7644	29.3853	-109.322	23.6649	19.7287	-128.091	104.606	30.9585	-125.849	83.9335	27.2967	-150.61	70.2665	15.8825	-167.246	105.613	8.40135	-132.412	88.3693	2.56585	-155.642	70.614	-0.967009	-179.584	103.638	-13.8008	-127.975	89.6372	-15.5586	-147.544	73.8143	-15.4356	-170.939	99.4086	-31.6051	-110.72	85.1659	-27.9322	-131.942	75.1564	-27.1674	-157.002	124.816	-7.88846	-62.5497	127.366	-7.98069	-30.1522	123.987	24.5146	-49.9584	
11	0.0916667	69.8987	35.5498	-48.4353	51.6299	24.8508	-80.7042	39.4127	14.0082	-117.778	28.5401	6.28002	-138.569	99.022	42.3801	-125.551	86.5792	33.3862	-150.183	74.8924	23.4464	-173.002	110.182	25.0861	-128.859	96.2809	16.1281	-158.804	83.5653	12.7151	-184.138	116.891	1.87444	-129.632	105.774	-3.44553	-151.381	91.1315	-3.16162	-178.22	115.62	-14.1824	-117.111	104.816	-17.7799	-141.13	97.3663	-18.3068	-162.675	131.509	2.12326	-67.5785	128.487	-0.153522	-32.09	114.975	35.3656	-50.7135	
12	0.1	61.3221	27.6192	-49.5922	51.7477	16.2876	-84.7009	46.8733	8.39996	-118.322	41.4482	2.67613	-141.498	93.9775	57.4628	-121.172	88.2688	48.4071	-145.998	80.8011	42.1974	-167.87	110.277	45.9566	-127.435	104.778	36.1999	-157.935	97.8911	32.4811	-183.643	124.678	27.0471	-126.28	119.995	20.9838	-152.781	108.341	23.5408	-177.264	132.279	7.67106	-115.866	122.356	7.18546	-139.09	115.785	8.95803	-162.534	133.517	22.2868	-60.3534	128.265	10.7054	-29.5795	105.681	41.8431	-39.9136	
13	0.108333	61.1225	24.9383	-49.3837	51.1909	16.1471	-85.613	52.3644	14.0315	-119.656	47.5675	8.30422	-142.162	88.1717	69.5438	-108.229	84.8065	65.7888	-137.42	80.6815	60.3429	-166.598	110.313	64.1282	-113.681	105.2	61.7767	-145.616	101.017	59.1935	-179.176	125.752	49.2343	-118.891	117.867	49.8331	-141.355	115.035	49.3704	-167.141	137.176	30.1148	-106.435	128.703	31.6247	-135.358	122.251	35.7679	-154.152	127.145	35.9183	-50.2792	125.007	22.3166	-24.4923	94.7998	47.7056	-32.0807	
14	0.116667	50.6705	26.0172	-44.6963	39.5703	16.9729	-80.4802	43.5789	16.8457	-115.535	42.4117	14.9303	-143.285	74.2091	77.9335	-104.108	73.053	72.6732	-132.394	68.7157	69.0403	-157.022	93.9953	73.4561	-107.419	94.414	70.9202	-137.823	89.1478	70.0188	-170.831	116.154	58.1201	-110.792	110.466	59.6415	-138.731	103.709	61.8958	-165.028	127.022	40.1199	-100.409	124.819	41.6585	-126.894	116.493	47.6808	-152.676	120.54	41.8053	-46.4557	114.816	27.6062	-17.1262	85.0197	50.9312	-30.0724	
15	0.125	40.1229	20.0341	-39.7229	32.4196	8.04123	-74.5443	32.0914	4.87897	-109.814	32.6778	0.36313	-133.477	61.362	67.6723	-101.744	57.0567	61.2394	-130.673	54.0074	55.5874	-155.136	82.0628	61.9647	-109.091	75.5375	58.5152	-140.043	72.6259	55.4992	-167.154	99.3373	50.3751	-109.657	100.866	46.7826	-133.642	92.3581	47.5005	-162.322	116.112	31.6319	-99.5739	111.334	30.7975	-125.141	104.404	35.6435	-148.918	112.511	36.2975	-43.346	110.777	24.0439	-16.2711	76.0261	43.4519	-24.6537	
16	0.133333	36.9768	9.15786	-34.5002	23.4701	-4.57574	-70.0251	27.2447	-10.5752	-105.748	22.8019	-19.1695	-128.59	51.8986	49.2446	-104.641	44.8029	41.0544	-129.817	44.6865	29.5328	-156.607	72.2525	43.9038	-108.323	64.6013	34.7453	-138.292	63.4329	25.3962	-166.911	90.9612	30.9563	-107.13	85.5315	24.8758	-137.123	76.9909	22.6921	-163.672	107.642	13.2199	-97.956	96.9189	10.3102	-127.063	90.3886	11.9315	-150.213	104.083	25.7147	-43.7335	105.006	14.7298	-12.8621	71.4223	33.971	-24.5539	
17	0.141667	29.2569	9.75941	-31.5038	17.6724	-7.66879	-64.6803	10.066	-18.8571	-95.8463	5.23978	-27.6733	-115.819	45.6814	36.2507	-106.088	36.0671	25.5739	-129.372	28.864	12.6744	-150.957	63.6078	27.0472	-113.368	51.6654	15.8913	-141.547	40.979	7.01482	-166.374	78.0341	15.5356	-112.34	71.4729	4.47213	-139.757	57.9628	1.473	-160.326	92.2408	-1.39066	-102.342	82.245	-8.23055	-127.736	77.4071	-10.2308	-149.122	99.9474	15.269	-47.7804	101.238	7.76717	-13.6395	66.7859	31.4356	-26.0592	
18	0.15	27.8482	20.6838	-23.7671	8.32085	4.57092	-56.5735	-6.86865	-7.24657	-84.4653	-17.3353	-15.752	-105.259	40.0719	35.8252	-104.073	26.7583	24.1592	-124.782	13.2215	8.10583	-147.916	52.6933	20.9667	-114.894	39.2119	8.38817	-135.95	22.6051	-4.12418	-162.408	70.1873	-0.023077	-112.007	54.2729	-5.68805	-133.922	34.7775	-11.0411	-156.877	78.3034	-16.3732	-99.9764	60.2482	-20.8581	-125.62	50.844	-25.0566	-142.946	92.8404	7.17155	-53.5076	96.1967	1.29763	-20.1021	74.4433	29.7784	-31.1414	
19	0.158333	40.9226	39.6032	-27.1052	13.8914	29.3211	-52.4264	-7.74489	22.7527	-75.3929	-25.9858	18.0493	-94.8166	47.4477	38.3303	-104.114	25.5059	32.9868	-124.119	5.19979	26.7807	-140.014	51.208	14.4303	-115.963	27.435	11.5731	-135.267	4.32544	7.03756	-156.429	53.6813	-5.34638	-114.139	34.6623	-4.86515	-131.62	11.5728	-6.09999	-151.723	57.6337	-22.3456	-95.6775	38.3047	-23.519	-117.352	22.0728	-18.2736	-138.043	88.2507	-3.39231	-58.3427	95.7938	-8.12235	-26.0698	85.4485	26.0465	-34.8561	
